<svg width="32" height="32" viewBox="0 0 32 32" fill="none" xmlns="http://www.w3.org/2000/svg">
    <rect width="32" height="32" rx="3" fill="#EC0200"/>
    <path d="M4 11C4 10.474 4.13536 9.97965 4.37315 9.54983L11.3575 15.7283L4.47114 22.6146C4.17289 22.1485 4 21.5944 4 21V11Z" fill="white"/>
    <path d="M7 24C6.67291 24 6.35805 23.9477 6.06333 23.8509L12.8583 17.0559L16 19.8351L19.1417 17.0559L25.9367 23.8509C25.642 23.9477 25.3271 24 25 24H7Z" fill="white"/>
    <path d="M27.5289 22.6146C27.8271 22.1485 28 21.5944 28 21V11C28 10.474 27.8646 9.97965 27.6268 9.54983L20.6425 15.7283L27.5289 22.6146Z" fill="white"/>
    <path d="M7 8H25C25.3949 8 25.772 8.0763 26.1173 8.21496L16 17.1649L5.8827 8.21496C6.22802 8.0763 6.6051 8 7 8Z" fill="white"/>
</svg>
