<svg width="32" height="32" viewBox="0 0 32 32" fill="none" xmlns="http://www.w3.org/2000/svg">
    <rect width="32" height="32" rx="3" fill="#0A66C2"/>
    <path d="M21.7537 25.7777H25.8096L25.8113 18.6121C25.8113 15.0943 25.0534 12.3903 20.9425 12.3903C20.1712 12.3617 19.4066 12.5428 18.7301 12.9143C18.0536 13.2859 17.4905 13.834 17.1008 14.5003H17.0463V12.7152H13.1527V25.7773H17.2086V19.3155C17.2086 17.6116 17.5318 15.9613 19.6442 15.9613C21.7267 15.9613 21.7537 17.9111 21.7537 19.4258V25.7777Z" fill="white"/>
    <path d="M7.26855 10.5333C7.65566 10.7918 8.11076 10.9298 8.57627 10.9297C8.88536 10.9296 9.19141 10.8687 9.47695 10.7504C9.76249 10.632 10.0219 10.4586 10.2405 10.24C10.459 10.0214 10.6323 9.76188 10.7505 9.47629C10.8688 9.1907 10.9296 8.88461 10.9295 8.57551C10.9295 8.10998 10.7913 7.65493 10.5326 7.2679C10.2739 6.88087 9.90629 6.57925 9.47618 6.40118C9.04607 6.2231 8.57282 6.17658 8.11626 6.26748C7.65971 6.35838 7.24037 6.58263 6.91126 6.91187C6.58215 7.24111 6.35804 7.66055 6.26731 8.11715C6.17657 8.57375 6.22328 9.04701 6.4015 9.47707C6.57973 9.90713 6.88145 10.2747 7.26855 10.5333Z" fill="white"/>
    <path d="M6.5441 25.7777H10.6042V12.7152H6.5441V25.7777Z" fill="white"/>
</svg>
